<svg width="191" height="46" viewBox="0 0 191 46" fill="none" xmlns="http://www.w3.org/2000/svg">
<path d="M6.26 8.04C7.72667 8.04 9.01333 8.32667 10.12 8.9C11.24 9.47333 12.1 10.2933 12.7 11.36C13.3133 12.4133 13.62 13.64 13.62 15.04C13.62 16.44 13.3133 17.6667 12.7 18.72C12.1 19.76 11.24 20.5667 10.12 21.14C9.01333 21.7133 7.72667 22 6.26 22H1.38V8.04H6.26ZM6.16 19.62C7.62667 19.62 8.76 19.22 9.56 18.42C10.36 17.62 10.76 16.4933 10.76 15.04C10.76 13.5867 10.36 12.4533 9.56 11.64C8.76 10.8133 7.62667 10.4 6.16 10.4H4.18V19.62H6.16ZM26.8159 8.04L22.0959 17.14V22H19.2959V17.14L14.5559 8.04H17.7159L20.7159 14.42L23.6959 8.04H26.8159ZM36.3108 22L31.2308 15.78V22H28.4308V8.04H31.2308V14.3L36.3108 8.04H39.6908L33.9308 14.96L39.8508 22H36.3108ZM48.1725 22.14C46.8658 22.14 45.6658 21.8333 44.5725 21.22C43.4792 20.6067 42.6125 19.76 41.9725 18.68C41.3325 17.5867 41.0125 16.3533 41.0125 14.98C41.0125 13.62 41.3325 12.4 41.9725 11.32C42.6125 10.2267 43.4792 9.37333 44.5725 8.76C45.6658 8.14667 46.8658 7.84 48.1725 7.84C49.4925 7.84 50.6925 8.14667 51.7725 8.76C52.8658 9.37333 53.7258 10.2267 54.3525 11.32C54.9925 12.4 55.3125 13.62 55.3125 14.98C55.3125 16.3533 54.9925 17.5867 54.3525 18.68C53.7258 19.76 52.8658 20.6067 51.7725 21.22C50.6792 21.8333 49.4792 22.14 48.1725 22.14ZM48.1725 19.64C49.0125 19.64 49.7525 19.4533 50.3925 19.08C51.0325 18.6933 51.5325 18.1467 51.8925 17.44C52.2525 16.7333 52.4325 15.9133 52.4325 14.98C52.4325 14.0467 52.2525 13.2333 51.8925 12.54C51.5325 11.8333 51.0325 11.2933 50.3925 10.92C49.7525 10.5467 49.0125 10.36 48.1725 10.36C47.3325 10.36 46.5858 10.5467 45.9325 10.92C45.2925 11.2933 44.7925 11.8333 44.4325 12.54C44.0725 13.2333 43.8925 14.0467 43.8925 14.98C43.8925 15.9133 44.0725 16.7333 44.4325 17.44C44.7925 18.1467 45.2925 18.6933 45.9325 19.08C46.5858 19.4533 47.3325 19.64 48.1725 19.64ZM66.8956 8.04V10.3H63.1756V22H60.3756V10.3H56.6556V8.04H66.8956ZM76.1386 22L73.0586 16.56H71.7386V22H68.9386V8.04H74.1786C75.2586 8.04 76.1786 8.23333 76.9386 8.62C77.6986 8.99333 78.2653 9.50667 78.6386 10.16C79.0253 10.8 79.2186 11.52 79.2186 12.32C79.2186 13.24 78.9519 14.0733 78.4186 14.82C77.8853 15.5533 77.0919 16.06 76.0386 16.34L79.3786 22H76.1386ZM71.7386 14.46H74.0786C74.8386 14.46 75.4053 14.28 75.7786 13.92C76.1519 13.5467 76.3386 13.0333 76.3386 12.38C76.3386 11.74 76.1519 11.2467 75.7786 10.9C75.4053 10.54 74.8386 10.36 74.0786 10.36H71.7386V14.46ZM84.5511 8.04V22H81.7511V8.04H84.5511ZM95.6775 22L92.6575 17.3L89.9175 22H86.7575L91.1575 14.96L86.6975 8.04H89.9175L92.9375 12.72L95.6575 8.04H98.8175L94.4375 15.06L98.8975 22H95.6775Z" fill="#161616"/>
<path d="M11.687 31.874L9.165 41H8.528L6.032 32.784L3.497 41H2.886L0.403 31.874H1.027L3.211 40.181L5.72 31.874H6.37L8.853 40.233L11.05 31.874H11.687ZM19.4962 36.996C19.4962 37.308 19.4876 37.542 19.4702 37.698H13.3732C13.3906 38.3307 13.5292 38.8637 13.7892 39.297C14.0492 39.7303 14.3916 40.0553 14.8162 40.272C15.2409 40.4887 15.7046 40.597 16.2072 40.597C16.9006 40.597 17.4812 40.428 17.9492 40.09C18.4172 39.7433 18.7119 39.2753 18.8332 38.686H19.4442C19.3056 39.4053 18.9502 39.9903 18.3782 40.441C17.8062 40.883 17.0826 41.104 16.2072 41.104C15.5486 41.104 14.9592 40.9567 14.4392 40.662C13.9192 40.3673 13.5119 39.947 13.2172 39.401C12.9226 38.8463 12.7752 38.2007 12.7752 37.464C12.7752 36.7273 12.9182 36.086 13.2042 35.54C13.4989 34.994 13.9062 34.578 14.4262 34.292C14.9462 33.9973 15.5399 33.85 16.2072 33.85C16.8832 33.85 17.4682 33.9973 17.9622 34.292C18.4649 34.578 18.8462 34.9637 19.1062 35.449C19.3662 35.9257 19.4962 36.4413 19.4962 36.996ZM18.9112 37.217C18.9372 36.593 18.8246 36.0643 18.5732 35.631C18.3306 35.1977 17.9969 34.877 17.5722 34.669C17.1476 34.4523 16.6882 34.344 16.1942 34.344C15.7002 34.344 15.2409 34.4523 14.8162 34.669C14.4002 34.877 14.0579 35.1977 13.7892 35.631C13.5292 36.0643 13.3906 36.593 13.3732 37.217H18.9112ZM21.8492 35.8C22.0659 35.228 22.4342 34.76 22.9542 34.396C23.4742 34.032 24.1026 33.85 24.8392 33.85C25.4979 33.85 26.0829 33.9973 26.5942 34.292C27.1142 34.5867 27.5172 35.007 27.8032 35.553C28.0979 36.099 28.2452 36.736 28.2452 37.464C28.2452 38.192 28.0979 38.8333 27.8032 39.388C27.5172 39.934 27.1142 40.3587 26.5942 40.662C26.0829 40.9567 25.4979 41.104 24.8392 41.104C24.1026 41.104 23.4699 40.922 22.9412 40.558C22.4212 40.194 22.0572 39.726 21.8492 39.154V41H21.2642V31.38H21.8492V35.8ZM27.6472 37.464C27.6472 36.8227 27.5259 36.268 27.2832 35.8C27.0406 35.332 26.6982 34.9767 26.2562 34.734C25.8229 34.4827 25.3202 34.357 24.7482 34.357C24.2022 34.357 23.7082 34.487 23.2662 34.747C22.8242 34.9983 22.4776 35.3623 22.2262 35.839C21.9749 36.307 21.8492 36.8487 21.8492 37.464C21.8492 38.088 21.9749 38.6383 22.2262 39.115C22.4776 39.583 22.8242 39.947 23.2662 40.207C23.7082 40.4583 24.2022 40.584 24.7482 40.584C25.3202 40.584 25.8229 40.4583 26.2562 40.207C26.6982 39.9557 27.0406 39.596 27.2832 39.128C27.5259 38.66 27.6472 38.1053 27.6472 37.464ZM29.6473 37.464C29.6473 36.736 29.7903 36.099 30.0763 35.553C30.371 35.007 30.774 34.5867 31.2853 34.292C31.8053 33.9973 32.3946 33.85 33.0533 33.85C33.7726 33.85 34.3966 34.032 34.9253 34.396C35.454 34.7513 35.8266 35.215 36.0433 35.787V31.38H36.6283V41H36.0433V39.128C35.8353 39.7087 35.4713 40.1853 34.9513 40.558C34.4313 40.922 33.7986 41.104 33.0533 41.104C32.3946 41.104 31.8053 40.9567 31.2853 40.662C30.774 40.3587 30.371 39.934 30.0763 39.388C29.7903 38.8333 29.6473 38.192 29.6473 37.464ZM36.0433 37.464C36.0433 36.8487 35.9133 36.307 35.6533 35.839C35.402 35.3623 35.0553 34.9983 34.6133 34.747C34.1713 34.487 33.6773 34.357 33.1313 34.357C32.5593 34.357 32.0566 34.4827 31.6233 34.734C31.19 34.9767 30.852 35.332 30.6093 35.8C30.3666 36.268 30.2453 36.8227 30.2453 37.464C30.2453 38.1053 30.3666 38.66 30.6093 39.128C30.852 39.596 31.19 39.9557 31.6233 40.207C32.0653 40.4583 32.568 40.584 33.1313 40.584C33.6773 40.584 34.1713 40.4583 34.6133 40.207C35.064 39.947 35.415 39.583 35.6663 39.115C35.9176 38.6383 36.0433 38.088 36.0433 37.464ZM45.1154 36.996C45.1154 37.308 45.1067 37.542 45.0894 37.698H38.9924C39.0097 38.3307 39.1484 38.8637 39.4084 39.297C39.6684 39.7303 40.0107 40.0553 40.4354 40.272C40.86 40.4887 41.3237 40.597 41.8264 40.597C42.5197 40.597 43.1004 40.428 43.5684 40.09C44.0364 39.7433 44.3311 39.2753 44.4524 38.686H45.0634C44.9247 39.4053 44.5694 39.9903 43.9974 40.441C43.4254 40.883 42.7017 41.104 41.8264 41.104C41.1677 41.104 40.5784 40.9567 40.0584 40.662C39.5384 40.3673 39.131 39.947 38.8364 39.401C38.5417 38.8463 38.3944 38.2007 38.3944 37.464C38.3944 36.7273 38.5374 36.086 38.8234 35.54C39.118 34.994 39.5254 34.578 40.0454 34.292C40.5654 33.9973 41.159 33.85 41.8264 33.85C42.5024 33.85 43.0874 33.9973 43.5814 34.292C44.084 34.578 44.4654 34.9637 44.7254 35.449C44.9854 35.9257 45.1154 36.4413 45.1154 36.996ZM44.5304 37.217C44.5564 36.593 44.4437 36.0643 44.1924 35.631C43.9497 35.1977 43.616 34.877 43.1914 34.669C42.7667 34.4523 42.3074 34.344 41.8134 34.344C41.3194 34.344 40.86 34.4523 40.4354 34.669C40.0194 34.877 39.677 35.1977 39.4084 35.631C39.1484 36.0643 39.0097 36.593 38.9924 37.217H44.5304ZM49.2364 41.104C48.4477 41.104 47.802 40.9307 47.2994 40.584C46.8054 40.2373 46.528 39.7433 46.4674 39.102H47.0654C47.1087 39.5613 47.3167 39.9253 47.6894 40.194C48.0707 40.4627 48.5864 40.597 49.2364 40.597C49.7737 40.597 50.1984 40.4627 50.5104 40.194C50.831 39.9167 50.9914 39.5787 50.9914 39.18C50.9914 38.9027 50.9047 38.6773 50.7314 38.504C50.5667 38.322 50.3587 38.1833 50.1074 38.088C49.856 37.9927 49.5137 37.8887 49.0804 37.776C48.5604 37.6373 48.14 37.503 47.8194 37.373C47.4987 37.2343 47.2257 37.0307 47.0004 36.762C46.775 36.4933 46.6624 36.1337 46.6624 35.683C46.6624 35.3537 46.762 35.0503 46.9614 34.773C47.1607 34.487 47.438 34.2617 47.7934 34.097C48.1487 33.9323 48.5517 33.85 49.0024 33.85C49.739 33.85 50.3327 34.0363 50.7834 34.409C51.2427 34.773 51.4897 35.28 51.5244 35.93H50.9394C50.9134 35.462 50.7314 35.0807 50.3934 34.786C50.0554 34.4913 49.5874 34.344 48.9894 34.344C48.4867 34.344 48.0707 34.474 47.7414 34.734C47.412 34.994 47.2474 35.3103 47.2474 35.683C47.2474 36.0123 47.3384 36.281 47.5204 36.489C47.711 36.6883 47.9407 36.8443 48.2094 36.957C48.4867 37.061 48.8507 37.1737 49.3014 37.295C49.7954 37.425 50.1897 37.555 50.4844 37.685C50.7877 37.8063 51.0434 37.9883 51.2514 38.231C51.4594 38.465 51.5634 38.7813 51.5634 39.18C51.5634 39.544 51.4637 39.8733 51.2644 40.168C51.065 40.4627 50.7877 40.6923 50.4324 40.857C50.077 41.0217 49.6784 41.104 49.2364 41.104ZM53.6443 32.368C53.5056 32.368 53.3886 32.3247 53.2933 32.238C53.198 32.1427 53.1503 32.017 53.1503 31.861C53.1503 31.7137 53.198 31.5923 53.2933 31.497C53.3886 31.4017 53.5056 31.354 53.6443 31.354C53.783 31.354 53.9 31.4017 53.9953 31.497C54.0906 31.5923 54.1383 31.7137 54.1383 31.861C54.1383 32.017 54.0906 32.1427 53.9953 32.238C53.9 32.3247 53.783 32.368 53.6443 32.368ZM53.9303 33.941V41H53.3453V33.941H53.9303ZM59.1168 33.85C59.8621 33.85 60.4948 34.032 61.0148 34.396C61.5348 34.7513 61.8988 35.2107 62.1068 35.774V33.941H62.6918V41.221C62.6918 41.871 62.5488 42.4387 62.2628 42.924C61.9768 43.418 61.5911 43.795 61.1058 44.055C60.6205 44.3237 60.0788 44.458 59.4808 44.458C58.5968 44.458 57.8645 44.2457 57.2838 43.821C56.7031 43.3963 56.3218 42.8243 56.1398 42.105H56.7248C56.8981 42.6683 57.2231 43.1147 57.6998 43.444C58.1765 43.782 58.7701 43.951 59.4808 43.951C59.9748 43.951 60.4211 43.8383 60.8198 43.613C61.2185 43.3963 61.5305 43.08 61.7558 42.664C61.9898 42.2567 62.1068 41.7757 62.1068 41.221V39.154C61.8988 39.7173 61.5305 40.1853 61.0018 40.558C60.4818 40.922 59.8535 41.104 59.1168 41.104C58.4581 41.104 57.8688 40.9567 57.3488 40.662C56.8375 40.3587 56.4345 39.934 56.1398 39.388C55.8538 38.8333 55.7108 38.192 55.7108 37.464C55.7108 36.736 55.8538 36.099 56.1398 35.553C56.4345 35.007 56.8375 34.5867 57.3488 34.292C57.8688 33.9973 58.4581 33.85 59.1168 33.85ZM62.1068 37.464C62.1068 36.8487 61.9768 36.307 61.7168 35.839C61.4655 35.3623 61.1188 34.9983 60.6768 34.747C60.2348 34.487 59.7408 34.357 59.1948 34.357C58.6228 34.357 58.1201 34.4827 57.6868 34.734C57.2535 34.9767 56.9155 35.332 56.6728 35.8C56.4301 36.268 56.3088 36.8227 56.3088 37.464C56.3088 38.1053 56.4301 38.66 56.6728 39.128C56.9155 39.596 57.2535 39.9557 57.6868 40.207C58.1288 40.4583 58.6315 40.584 59.1948 40.584C59.7408 40.584 60.2348 40.4583 60.6768 40.207C61.1275 39.947 61.4785 39.583 61.7298 39.115C61.9811 38.6383 62.1068 38.088 62.1068 37.464ZM68.0069 33.798C68.8475 33.798 69.5322 34.058 70.0609 34.578C70.5895 35.0893 70.8539 35.852 70.8539 36.866V41H70.2819V36.905C70.2819 36.0643 70.0695 35.423 69.6449 34.981C69.2202 34.5303 68.6439 34.305 67.9159 34.305C67.1532 34.305 66.5422 34.5477 66.0829 35.033C65.6322 35.5183 65.4069 36.2377 65.4069 37.191V41H64.8219V33.941H65.4069V35.436C65.6062 34.9073 65.9355 34.5043 66.3949 34.227C66.8629 33.941 67.4002 33.798 68.0069 33.798Z" fill="#161616"/>
<path d="M96.581 32.069V41H95.996V33.291L92.564 41H92.096L88.651 33.291V41H88.066V32.069H88.69L92.33 40.233L95.97 32.069H96.581ZM98.3661 37.464C98.3661 36.736 98.5091 36.099 98.7951 35.553C99.0897 35.007 99.4927 34.5867 100.004 34.292C100.524 33.9973 101.113 33.85 101.772 33.85C102.517 33.85 103.15 34.032 103.67 34.396C104.19 34.76 104.554 35.2237 104.762 35.787V33.941H105.347V41H104.762V39.141C104.554 39.713 104.186 40.1853 103.657 40.558C103.137 40.922 102.509 41.104 101.772 41.104C101.113 41.104 100.524 40.9567 100.004 40.662C99.4927 40.3587 99.0897 39.934 98.7951 39.388C98.5091 38.8333 98.3661 38.192 98.3661 37.464ZM104.762 37.464C104.762 36.8487 104.632 36.307 104.372 35.839C104.121 35.3623 103.774 34.9983 103.332 34.747C102.89 34.487 102.396 34.357 101.85 34.357C101.278 34.357 100.775 34.4827 100.342 34.734C99.9087 34.9767 99.5707 35.332 99.3281 35.8C99.0854 36.268 98.9641 36.8227 98.9641 37.464C98.9641 38.1053 99.0854 38.66 99.3281 39.128C99.5707 39.596 99.9087 39.9557 100.342 40.207C100.784 40.4583 101.287 40.584 101.85 40.584C102.396 40.584 102.89 40.4583 103.332 40.207C103.783 39.947 104.134 39.583 104.385 39.115C104.636 38.6383 104.762 38.088 104.762 37.464ZM108.062 35.397C108.235 34.877 108.543 34.4827 108.985 34.214C109.427 33.9367 109.99 33.798 110.675 33.798V34.409H110.48C109.787 34.409 109.21 34.6083 108.751 35.007C108.292 35.397 108.062 36.0383 108.062 36.931V41H107.477V33.941H108.062V35.397ZM115.688 41L112.607 37.763V41H112.022V31.38H112.607V37.139L115.636 33.941H116.455L113.036 37.451L116.494 41H115.688ZM124.054 36.996C124.054 37.308 124.045 37.542 124.028 37.698H117.931C117.948 38.3307 118.087 38.8637 118.347 39.297C118.607 39.7303 118.949 40.0553 119.374 40.272C119.799 40.4887 120.262 40.597 120.765 40.597C121.458 40.597 122.039 40.428 122.507 40.09C122.975 39.7433 123.27 39.2753 123.391 38.686H124.002C123.863 39.4053 123.508 39.9903 122.936 40.441C122.364 40.883 121.64 41.104 120.765 41.104C120.106 41.104 119.517 40.9567 118.997 40.662C118.477 40.3673 118.07 39.947 117.775 39.401C117.48 38.8463 117.333 38.2007 117.333 37.464C117.333 36.7273 117.476 36.086 117.762 35.54C118.057 34.994 118.464 34.578 118.984 34.292C119.504 33.9973 120.098 33.85 120.765 33.85C121.441 33.85 122.026 33.9973 122.52 34.292C123.023 34.578 123.404 34.9637 123.664 35.449C123.924 35.9257 124.054 36.4413 124.054 36.996ZM123.469 37.217C123.495 36.593 123.382 36.0643 123.131 35.631C122.888 35.1977 122.555 34.877 122.13 34.669C121.705 34.4523 121.246 34.344 120.752 34.344C120.258 34.344 119.799 34.4523 119.374 34.669C118.958 34.877 118.616 35.1977 118.347 35.631C118.087 36.0643 117.948 36.593 117.931 37.217H123.469ZM126.693 34.448V39.115C126.693 39.635 126.788 39.9947 126.979 40.194C127.17 40.3847 127.508 40.48 127.993 40.48H128.786V41H127.902C127.287 41 126.832 40.857 126.537 40.571C126.251 40.2763 126.108 39.791 126.108 39.115V34.448H125.042V33.941H126.108V32.147H126.693V33.941H128.786V34.448H126.693ZM130.628 32.368C130.489 32.368 130.372 32.3247 130.277 32.238C130.181 32.1427 130.134 32.017 130.134 31.861C130.134 31.7137 130.181 31.5923 130.277 31.497C130.372 31.4017 130.489 31.354 130.628 31.354C130.766 31.354 130.883 31.4017 130.979 31.497C131.074 31.5923 131.122 31.7137 131.122 31.861C131.122 32.017 131.074 32.1427 130.979 32.238C130.883 32.3247 130.766 32.368 130.628 32.368ZM130.914 33.941V41H130.329V33.941H130.914ZM136.243 33.798C137.084 33.798 137.769 34.058 138.297 34.578C138.826 35.0893 139.09 35.852 139.09 36.866V41H138.518V36.905C138.518 36.0643 138.306 35.423 137.881 34.981C137.457 34.5303 136.88 34.305 136.152 34.305C135.39 34.305 134.779 34.5477 134.319 35.033C133.869 35.5183 133.643 36.2377 133.643 37.191V41H133.058V33.941H133.643V35.436C133.843 34.9073 134.172 34.5043 134.631 34.227C135.099 33.941 135.637 33.798 136.243 33.798ZM144.2 33.85C144.945 33.85 145.578 34.032 146.098 34.396C146.618 34.7513 146.982 35.2107 147.19 35.774V33.941H147.775V41.221C147.775 41.871 147.632 42.4387 147.346 42.924C147.06 43.418 146.674 43.795 146.189 44.055C145.703 44.3237 145.162 44.458 144.564 44.458C143.68 44.458 142.947 44.2457 142.367 43.821C141.786 43.3963 141.405 42.8243 141.223 42.105H141.808C141.981 42.6683 142.306 43.1147 142.783 43.444C143.259 43.782 143.853 43.951 144.564 43.951C145.058 43.951 145.504 43.8383 145.903 43.613C146.301 43.3963 146.613 43.08 146.839 42.664C147.073 42.2567 147.19 41.7757 147.19 41.221V39.154C146.982 39.7173 146.613 40.1853 146.085 40.558C145.565 40.922 144.936 41.104 144.2 41.104C143.541 41.104 142.952 40.9567 142.432 40.662C141.92 40.3587 141.517 39.934 141.223 39.388C140.937 38.8333 140.794 38.192 140.794 37.464C140.794 36.736 140.937 36.099 141.223 35.553C141.517 35.007 141.92 34.5867 142.432 34.292C142.952 33.9973 143.541 33.85 144.2 33.85ZM147.19 37.464C147.19 36.8487 147.06 36.307 146.8 35.839C146.548 35.3623 146.202 34.9983 145.76 34.747C145.318 34.487 144.824 34.357 144.278 34.357C143.706 34.357 143.203 34.4827 142.77 34.734C142.336 34.9767 141.998 35.332 141.756 35.8C141.513 36.268 141.392 36.8227 141.392 37.464C141.392 38.1053 141.513 38.66 141.756 39.128C141.998 39.596 142.336 39.9557 142.77 40.207C143.212 40.4583 143.714 40.584 144.278 40.584C144.824 40.584 145.318 40.4583 145.76 40.207C146.21 39.947 146.561 39.583 146.813 39.115C147.064 38.6383 147.19 38.088 147.19 37.464Z" fill="#161616"/>
<path d="M170.705 41.091C170.116 41.091 169.6 40.987 169.158 40.779C168.716 40.571 168.369 40.2893 168.118 39.934C167.875 39.5787 167.737 39.1843 167.702 38.751H168.313C168.382 39.2277 168.603 39.6523 168.976 40.025C169.357 40.3977 169.934 40.584 170.705 40.584C171.156 40.584 171.546 40.5017 171.875 40.337C172.213 40.1723 172.473 39.947 172.655 39.661C172.837 39.375 172.928 39.0587 172.928 38.712C172.928 38.27 172.82 37.919 172.603 37.659C172.395 37.399 172.131 37.204 171.81 37.074C171.498 36.944 171.073 36.8053 170.536 36.658C169.947 36.502 169.47 36.346 169.106 36.19C168.751 36.034 168.447 35.7957 168.196 35.475C167.953 35.1457 167.832 34.6993 167.832 34.136C167.832 33.7027 167.945 33.3083 168.17 32.953C168.404 32.589 168.733 32.303 169.158 32.095C169.583 31.887 170.072 31.783 170.627 31.783C171.433 31.783 172.083 31.9823 172.577 32.381C173.071 32.7797 173.366 33.2693 173.461 33.85H172.837C172.785 33.616 172.668 33.3777 172.486 33.135C172.313 32.8923 172.061 32.693 171.732 32.537C171.411 32.3723 171.026 32.29 170.575 32.29C169.968 32.29 169.457 32.459 169.041 32.797C168.625 33.1263 168.417 33.5683 168.417 34.123C168.417 34.565 168.525 34.9203 168.742 35.189C168.959 35.449 169.223 35.6483 169.535 35.787C169.856 35.917 170.285 36.0513 170.822 36.19C171.42 36.3547 171.892 36.515 172.239 36.671C172.594 36.8183 172.893 37.0567 173.136 37.386C173.387 37.7067 173.513 38.1443 173.513 38.699C173.513 39.1063 173.405 39.492 173.188 39.856C172.971 40.22 172.651 40.519 172.226 40.753C171.81 40.9783 171.303 41.091 170.705 41.091ZM175.849 32.368V36.177H179.489V36.671H175.849V40.506H179.879V41H175.264V31.874H179.879V32.368H175.849ZM185.719 41.104C184.878 41.104 184.12 40.909 183.444 40.519C182.768 40.1203 182.239 39.5657 181.858 38.855C181.477 38.1443 181.286 37.3427 181.286 36.45C181.286 35.5487 181.477 34.747 181.858 34.045C182.239 33.3343 182.768 32.784 183.444 32.394C184.12 31.9953 184.878 31.796 185.719 31.796C186.56 31.796 187.318 31.9953 187.994 32.394C188.67 32.784 189.199 33.3343 189.58 34.045C189.961 34.747 190.152 35.5487 190.152 36.45C190.152 37.3427 189.961 38.1443 189.58 38.855C189.199 39.5657 188.67 40.1203 187.994 40.519C187.318 40.909 186.56 41.104 185.719 41.104ZM185.719 40.584C186.438 40.584 187.088 40.415 187.669 40.077C188.25 39.739 188.705 39.258 189.034 38.634C189.372 38.01 189.541 37.282 189.541 36.45C189.541 35.6093 189.372 34.877 189.034 34.253C188.705 33.629 188.25 33.148 187.669 32.81C187.088 32.472 186.438 32.303 185.719 32.303C185 32.303 184.35 32.472 183.769 32.81C183.188 33.148 182.729 33.629 182.391 34.253C182.053 34.877 181.884 35.6093 181.884 36.45C181.884 37.282 182.053 38.01 182.391 38.634C182.729 39.258 183.188 39.739 183.769 40.077C184.35 40.415 185 40.584 185.719 40.584Z" fill="#161616"/>
<line x1="80.25" y1="32" x2="80.25" y2="41" stroke="#161616" stroke-width="0.5"/>
<line x1="158.25" y1="32" x2="158.25" y2="41" stroke="#161616" stroke-width="0.5"/>
</svg>
